<?xml version="1.0" standalone="no"?>
<!DOCTYPE svg PUBLIC "-//W3C//DTD SVG 1.1//EN" 
  "http://www.w3.org/Graphics/SVG/1.1/DTD/svg11.dtd">
<svg width="256px" height="256px" viewBox="0px 0px 256px 256px"
     xmlns="http://www.w3.org/2000/svg" version="1.1">
<desc>'tipsy_nipper_instruments_blender2.58.blend', Circle.045, (Blender 2.59 (sub 0))</desc>
<polygon stroke="black" stroke-width="1px" fill="rgb(255, 255, 255)" fill-opacity="0.25" points="52.316,96.650 59.886,82.488 42.858,71.110 33.395,88.813 " />
<polygon stroke="black" stroke-width="1px" fill="rgb(255, 255, 255)" fill-opacity="0.25" points="59.886,82.488 70.074,70.074 55.592,55.592 42.858,71.110 " />
<polygon stroke="black" stroke-width="1px" fill="rgb(255, 255, 255)" fill-opacity="0.25" points="70.074,70.074 82.488,59.886 71.110,42.857 55.592,55.592 " />
<polygon stroke="black" stroke-width="1px" fill="rgb(255, 255, 255)" fill-opacity="0.25" points="82.488,59.886 96.651,52.316 88.813,33.395 71.110,42.857 " />
<polygon stroke="black" stroke-width="1px" fill="rgb(255, 255, 255)" fill-opacity="0.25" points="96.651,52.316 112.018,47.654 108.023,27.568 88.813,33.395 " />
<polygon stroke="black" stroke-width="1px" fill="rgb(255, 255, 255)" fill-opacity="0.25" points="128.000,46.080 128.000,25.600 108.023,27.568 112.018,47.654 " />
<polygon stroke="black" stroke-width="1px" fill="rgb(255, 255, 255)" fill-opacity="0.25" points="128.000,46.080 143.982,47.654 147.977,27.568 128.000,25.600 " />
<polygon stroke="black" stroke-width="1px" fill="rgb(255, 255, 255)" fill-opacity="0.25" points="143.982,47.654 159.349,52.316 167.187,33.395 147.977,27.568 " />
<polygon stroke="black" stroke-width="1px" fill="rgb(255, 255, 255)" fill-opacity="0.25" points="159.349,52.316 173.512,59.886 184.890,42.858 167.187,33.395 " />
<polygon stroke="black" stroke-width="1px" fill="rgb(255, 255, 255)" fill-opacity="0.25" points="173.512,59.886 185.926,70.074 200.408,55.592 184.890,42.858 " />
<polygon stroke="black" stroke-width="1px" fill="rgb(255, 255, 255)" fill-opacity="0.25" points="185.926,70.074 196.114,82.488 213.142,71.110 200.408,55.592 " />
<polygon stroke="black" stroke-width="1px" fill="rgb(255, 255, 255)" fill-opacity="0.25" points="196.114,82.488 203.684,96.651 222.605,88.813 213.142,71.110 " />
<polygon stroke="black" stroke-width="1px" fill="rgb(255, 255, 255)" fill-opacity="0.25" points="128.000,67.123 114.981,68.697 108.023,228.432 128.000,230.400 " />
<polygon stroke="black" stroke-width="1px" fill="rgb(255, 255, 255)" fill-opacity="0.25" points="114.981,68.697 102.463,73.359 88.813,222.605 108.023,228.432 " />
<polygon stroke="black" stroke-width="1px" fill="rgb(255, 255, 255)" fill-opacity="0.25" points="102.463,73.359 90.926,80.929 71.110,213.142 88.813,222.605 " />
<polygon stroke="black" stroke-width="1px" fill="rgb(255, 255, 255)" fill-opacity="0.25" points="90.926,80.929 80.813,91.117 55.592,200.408 71.110,213.142 " />
<polygon stroke="black" stroke-width="1px" fill="rgb(255, 255, 255)" fill-opacity="0.25" points="80.813,91.117 72.514,103.531 42.858,184.890 55.592,200.408 " />
<polygon stroke="black" stroke-width="1px" fill="rgb(255, 255, 255)" fill-opacity="0.25" points="72.514,103.531 27.568,147.977 33.395,167.187 42.858,184.890 " />
<polygon stroke="black" stroke-width="1px" fill="rgb(255, 255, 255)" fill-opacity="0.25" points="72.514,103.531 52.316,96.650 25.600,128.000 27.568,147.977 " />
<polygon stroke="black" stroke-width="1px" fill="rgb(255, 255, 255)" fill-opacity="0.25" points="33.395,88.813 27.568,108.023 25.600,128.000 52.316,96.650 " />
<polygon stroke="black" stroke-width="1px" fill="rgb(255, 255, 255)" fill-opacity="0.25" points="141.019,68.697 128.000,67.123 128.000,230.400 147.977,228.432 " />
<polygon stroke="black" stroke-width="1px" fill="rgb(255, 255, 255)" fill-opacity="0.25" points="153.537,73.359 141.019,68.697 147.977,228.432 167.187,222.605 " />
<polygon stroke="black" stroke-width="1px" fill="rgb(255, 255, 255)" fill-opacity="0.25" points="165.074,80.929 153.537,73.359 167.187,222.605 184.890,213.142 " />
<polygon stroke="black" stroke-width="1px" fill="rgb(255, 255, 255)" fill-opacity="0.25" points="175.187,91.117 165.074,80.929 184.890,213.142 200.408,200.408 " />
<polygon stroke="black" stroke-width="1px" fill="rgb(255, 255, 255)" fill-opacity="0.25" points="183.486,103.531 175.187,91.117 200.408,200.408 213.142,184.890 " />
<polygon stroke="black" stroke-width="1px" fill="rgb(255, 255, 255)" fill-opacity="0.25" points="203.684,96.651 183.486,103.531 213.142,184.890 222.605,167.187 " />
<polygon stroke="black" stroke-width="1px" fill="rgb(255, 255, 255)" fill-opacity="0.25" points="203.684,96.651 222.605,167.187 228.432,147.977 230.400,128.000 " />
<polygon stroke="black" stroke-width="1px" fill="rgb(255, 255, 255)" fill-opacity="0.25" points="230.400,128.000 228.432,108.023 222.605,88.813 203.684,96.651 " />
<polygon stroke="black" stroke-width="1px" fill="rgb(255, 255, 255)" fill-opacity="0.25" points="128.000,46.080 128.000,46.080 112.018,47.654 112.018,47.654 " />
<polygon stroke="black" stroke-width="1px" fill="rgb(255, 255, 255)" fill-opacity="0.25" points="141.019,68.697 141.019,68.697 128.000,67.123 128.000,67.123 " />
<polygon stroke="black" stroke-width="1px" fill="rgb(255, 255, 255)" fill-opacity="0.25" points="203.684,96.651 203.684,96.651 183.486,103.531 183.486,103.531 " />
<polygon stroke="black" stroke-width="1px" fill="rgb(255, 255, 255)" fill-opacity="0.25" points="72.514,103.531 72.514,103.531 52.316,96.650 52.316,96.650 " />
<polygon stroke="black" stroke-width="1px" fill="rgb(255, 255, 255)" fill-opacity="0.25" points="96.651,52.316 96.651,52.316 112.018,47.654 112.018,47.654 " />
<polygon stroke="black" stroke-width="1px" fill="rgb(255, 255, 255)" fill-opacity="0.25" points="82.488,59.886 82.488,59.886 96.651,52.316 96.651,52.316 " />
<polygon stroke="black" stroke-width="1px" fill="rgb(255, 255, 255)" fill-opacity="0.25" points="70.074,70.074 70.074,70.074 82.488,59.886 82.488,59.886 " />
<polygon stroke="black" stroke-width="1px" fill="rgb(255, 255, 255)" fill-opacity="0.25" points="59.886,82.488 59.886,82.488 70.074,70.074 70.074,70.074 " />
<polygon stroke="black" stroke-width="1px" fill="rgb(255, 255, 255)" fill-opacity="0.25" points="52.316,96.650 52.316,96.650 59.886,82.488 59.886,82.488 " />
<polygon stroke="black" stroke-width="1px" fill="rgb(255, 255, 255)" fill-opacity="0.25" points="80.813,91.117 80.813,91.117 72.514,103.531 72.514,103.531 " />
<polygon stroke="black" stroke-width="1px" fill="rgb(255, 255, 255)" fill-opacity="0.25" points="90.926,80.929 90.926,80.929 80.813,91.117 80.813,91.117 " />
<polygon stroke="black" stroke-width="1px" fill="rgb(255, 255, 255)" fill-opacity="0.25" points="102.463,73.359 102.463,73.359 90.926,80.929 90.926,80.929 " />
<polygon stroke="black" stroke-width="1px" fill="rgb(255, 255, 255)" fill-opacity="0.25" points="114.981,68.697 114.981,68.697 102.463,73.359 102.463,73.359 " />
<polygon stroke="black" stroke-width="1px" fill="rgb(255, 255, 255)" fill-opacity="0.25" points="128.000,67.123 128.000,67.123 114.981,68.697 114.981,68.697 " />
<polygon stroke="black" stroke-width="1px" fill="rgb(255, 255, 255)" fill-opacity="0.25" points="153.537,73.359 153.537,73.359 141.019,68.697 141.019,68.697 " />
<polygon stroke="black" stroke-width="1px" fill="rgb(255, 255, 255)" fill-opacity="0.25" points="165.074,80.929 165.074,80.929 153.537,73.359 153.537,73.359 " />
<polygon stroke="black" stroke-width="1px" fill="rgb(255, 255, 255)" fill-opacity="0.25" points="175.187,91.117 175.187,91.117 165.074,80.929 165.074,80.929 " />
<polygon stroke="black" stroke-width="1px" fill="rgb(255, 255, 255)" fill-opacity="0.25" points="183.486,103.531 183.486,103.531 175.187,91.117 175.187,91.117 " />
<polygon stroke="black" stroke-width="1px" fill="rgb(255, 255, 255)" fill-opacity="0.25" points="196.114,82.488 196.114,82.488 203.684,96.651 203.684,96.651 " />
<polygon stroke="black" stroke-width="1px" fill="rgb(255, 255, 255)" fill-opacity="0.25" points="185.926,70.074 185.926,70.074 196.114,82.488 196.114,82.488 " />
<polygon stroke="black" stroke-width="1px" fill="rgb(255, 255, 255)" fill-opacity="0.25" points="173.512,59.886 173.512,59.886 185.926,70.074 185.926,70.074 " />
<polygon stroke="black" stroke-width="1px" fill="rgb(255, 255, 255)" fill-opacity="0.25" points="159.349,52.316 159.349,52.316 173.512,59.886 173.512,59.886 " />
<polygon stroke="black" stroke-width="1px" fill="rgb(255, 255, 255)" fill-opacity="0.25" points="143.982,47.654 143.982,47.654 159.349,52.316 159.349,52.316 " />
<polygon stroke="black" stroke-width="1px" fill="rgb(255, 255, 255)" fill-opacity="0.25" points="128.000,46.080 128.000,46.080 143.982,47.654 143.982,47.654 " />

</svg>
