<?xml version="1.0" encoding="UTF-8" standalone="no"?>
<svg
   xmlns:dc="http://purl.org/dc/elements/1.1/"
   xmlns:cc="http://creativecommons.org/ns#"
   xmlns:rdf="http://www.w3.org/1999/02/22-rdf-syntax-ns#"
   xmlns:svg="http://www.w3.org/2000/svg"
   xmlns="http://www.w3.org/2000/svg"
   xmlns:sodipodi="http://sodipodi.sourceforge.net/DTD/sodipodi-0.dtd"
   xmlns:inkscape="http://www.inkscape.org/namespaces/inkscape"
   width="256px"
   height="256px"
   viewBox="0px 0px 256px 256px"
   version="1.1"
   id="svg2"
   inkscape:version="0.48.1 r9760"
   sodipodi:docname="bank.svg"
   inkscape:export-filename="/mnt/nfs_files/docs/dvanmosselbeen/GFX/blender/objects/aircrafts/avions_fairey/tipsy_nipper/bank.png"
   inkscape:export-xdpi="90"
   inkscape:export-ydpi="90">
  <metadata
     id="metadata114">
    <rdf:RDF>
      <cc:Work
         rdf:about="">
        <dc:format>image/svg+xml</dc:format>
        <dc:type
           rdf:resource="http://purl.org/dc/dcmitype/StillImage" />
        <dc:title></dc:title>
      </cc:Work>
    </rdf:RDF>
  </metadata>
  <defs
     id="defs112" />
  <sodipodi:namedview
     pagecolor="#ffffff"
     bordercolor="#666666"
     borderopacity="1"
     objecttolerance="10"
     gridtolerance="10"
     guidetolerance="10"
     inkscape:pageopacity="0"
     inkscape:pageshadow="2"
     inkscape:window-width="1600"
     inkscape:window-height="851"
     id="namedview110"
     showgrid="false"
     inkscape:zoom="1.646233"
     inkscape:cx="72.933809"
     inkscape:cy="116.69143"
     inkscape:window-x="0"
     inkscape:window-y="0"
     inkscape:window-maximized="1"
     inkscape:current-layer="layer2" />
  <desc
     id="desc4">'tipsy_nipper_instruments_blender2.58.blend', Circle.045, (Blender 2.59 (sub 0))</desc>
  <g
     inkscape:groupmode="layer"
     id="layer3"
     inkscape:label="bg"
     sodipodi:insensitive="true"
     style="display:inline">
    <rect
       style="fill:#000000;fill-opacity:1;stroke:#ffffff;stroke-width:0;stroke-miterlimit:4;stroke-opacity:1;stroke-dasharray:none;stroke-dashoffset:5"
       id="rect4047"
       width="424.37582"
       height="340.18793"
       x="-7.7315435"
       y="-3.4362416"
       ry="4.2538857" />
  </g>
  <g
     inkscape:groupmode="layer"
     id="layer1"
     inkscape:label="Layer"
     style="display:none"
     sodipodi:insensitive="true">
    <polygon
       style="fill:#ffffff;fill-opacity:0.25;stroke:#000000;stroke-width:1px"
       points="42.858,71.11 33.395,88.813 52.316,96.65 59.886,82.488 "
       id="polygon6" />
    <polygon
       style="fill:#ffffff;fill-opacity:0.25;stroke:#000000;stroke-width:1px"
       points="55.592,55.592 42.858,71.11 59.886,82.488 70.074,70.074 "
       id="polygon8" />
    <polygon
       style="fill:#ffffff;fill-opacity:0.25;stroke:#000000;stroke-width:1px"
       points="71.11,42.857 55.592,55.592 70.074,70.074 82.488,59.886 "
       id="polygon10" />
    <polygon
       style="fill:#ffffff;fill-opacity:0.25;stroke:#000000;stroke-width:1px"
       points="88.813,33.395 71.11,42.857 82.488,59.886 96.651,52.316 "
       id="polygon12" />
    <polygon
       style="fill:#ffffff;fill-opacity:0.25;stroke:#000000;stroke-width:1px"
       points="108.023,27.568 88.813,33.395 96.651,52.316 112.018,47.654 "
       id="polygon14" />
    <polygon
       style="fill:#ffffff;fill-opacity:0.25;stroke:#000000;stroke-width:1px"
       points="108.023,27.568 112.018,47.654 128,46.08 128,25.6 "
       id="polygon16" />
    <polygon
       style="fill:#ffffff;fill-opacity:0.25;stroke:#000000;stroke-width:1px"
       points="147.977,27.568 128,25.6 128,46.08 143.982,47.654 "
       id="polygon18" />
    <polygon
       style="fill:#ffffff;fill-opacity:0.25;stroke:#000000;stroke-width:1px"
       points="167.187,33.395 147.977,27.568 143.982,47.654 159.349,52.316 "
       id="polygon20" />
    <polygon
       style="fill:#ffffff;fill-opacity:0.25;stroke:#000000;stroke-width:1px"
       points="184.89,42.858 167.187,33.395 159.349,52.316 173.512,59.886 "
       id="polygon22" />
    <polygon
       style="fill:#ffffff;fill-opacity:0.25;stroke:#000000;stroke-width:1px"
       points="200.408,55.592 184.89,42.858 173.512,59.886 185.926,70.074 "
       id="polygon24" />
    <polygon
       style="fill:#ffffff;fill-opacity:0.25;stroke:#000000;stroke-width:1px"
       points="213.142,71.11 200.408,55.592 185.926,70.074 196.114,82.488 "
       id="polygon26" />
    <polygon
       style="fill:#ffffff;fill-opacity:0.25;stroke:#000000;stroke-width:1px"
       points="222.605,88.813 213.142,71.11 196.114,82.488 203.684,96.651 "
       id="polygon28" />
    <polygon
       style="fill:#ffffff;fill-opacity:0.25;stroke:#000000;stroke-width:1px"
       points="108.023,228.432 128,230.4 128,67.123 114.981,68.697 "
       id="polygon30" />
    <polygon
       style="fill:#ffffff;fill-opacity:0.25;stroke:#000000;stroke-width:1px"
       points="88.813,222.605 108.023,228.432 114.981,68.697 102.463,73.359 "
       id="polygon32" />
    <polygon
       style="fill:#ffffff;fill-opacity:0.25;stroke:#000000;stroke-width:1px"
       points="71.11,213.142 88.813,222.605 102.463,73.359 90.926,80.929 "
       id="polygon34" />
    <polygon
       style="fill:#ffffff;fill-opacity:0.25;stroke:#000000;stroke-width:1px"
       points="55.592,200.408 71.11,213.142 90.926,80.929 80.813,91.117 "
       id="polygon36" />
    <polygon
       style="fill:#ffffff;fill-opacity:0.25;stroke:#000000;stroke-width:1px"
       points="42.858,184.89 55.592,200.408 80.813,91.117 72.514,103.531 "
       id="polygon38" />
    <polygon
       style="fill:#ffffff;fill-opacity:0.25;stroke:#000000;stroke-width:1px"
       points="33.395,167.187 42.858,184.89 72.514,103.531 27.568,147.977 "
       id="polygon40" />
    <polygon
       style="fill:#ffffff;fill-opacity:0.25;stroke:#000000;stroke-width:1px"
       points="25.6,128 27.568,147.977 72.514,103.531 52.316,96.65 "
       id="polygon42" />
    <polygon
       style="fill:#ffffff;fill-opacity:0.25;stroke:#000000;stroke-width:1px"
       points="25.6,128 52.316,96.65 33.395,88.813 27.568,108.023 "
       id="polygon44" />
    <polygon
       style="fill:#ffffff;fill-opacity:0.25;stroke:#000000;stroke-width:1px"
       points="128,230.4 147.977,228.432 141.019,68.697 128,67.123 "
       id="polygon46" />
    <polygon
       style="fill:#ffffff;fill-opacity:0.25;stroke:#000000;stroke-width:1px"
       points="147.977,228.432 167.187,222.605 153.537,73.359 141.019,68.697 "
       id="polygon48" />
    <polygon
       style="fill:#ffffff;fill-opacity:0.25;stroke:#000000;stroke-width:1px"
       points="167.187,222.605 184.89,213.142 165.074,80.929 153.537,73.359 "
       id="polygon50" />
    <polygon
       style="fill:#ffffff;fill-opacity:0.25;stroke:#000000;stroke-width:1px"
       points="184.89,213.142 200.408,200.408 175.187,91.117 165.074,80.929 "
       id="polygon52" />
    <polygon
       style="fill:#ffffff;fill-opacity:0.25;stroke:#000000;stroke-width:1px"
       points="200.408,200.408 213.142,184.89 183.486,103.531 175.187,91.117 "
       id="polygon54" />
    <polygon
       style="fill:#ffffff;fill-opacity:0.25;stroke:#000000;stroke-width:1px"
       points="213.142,184.89 222.605,167.187 203.684,96.651 183.486,103.531 "
       id="polygon56" />
    <polygon
       style="fill:#ffffff;fill-opacity:0.25;stroke:#000000;stroke-width:1px"
       points="228.432,147.977 230.4,128 203.684,96.651 222.605,167.187 "
       id="polygon58" />
    <polygon
       style="fill:#ffffff;fill-opacity:0.25;stroke:#000000;stroke-width:1px"
       points="222.605,88.813 203.684,96.651 230.4,128 228.432,108.023 "
       id="polygon60" />
    <polygon
       style="fill:#ffffff;fill-opacity:0.25;stroke:#000000;stroke-width:1px"
       points="112.018,47.654 112.018,47.654 128,46.08 128,46.08 "
       id="polygon62" />
    <polygon
       style="fill:#ffffff;fill-opacity:0.25;stroke:#000000;stroke-width:1px"
       points="128,67.123 128,67.123 141.019,68.697 141.019,68.697 "
       id="polygon64" />
    <polygon
       style="fill:#ffffff;fill-opacity:0.25;stroke:#000000;stroke-width:1px"
       points="183.486,103.531 183.486,103.531 203.684,96.651 203.684,96.651 "
       id="polygon66" />
    <polygon
       style="fill:#ffffff;fill-opacity:0.25;stroke:#000000;stroke-width:1px"
       points="52.316,96.65 52.316,96.65 72.514,103.531 72.514,103.531 "
       id="polygon68" />
    <polygon
       style="fill:#ffffff;fill-opacity:0.25;stroke:#000000;stroke-width:1px"
       points="112.018,47.654 112.018,47.654 96.651,52.316 96.651,52.316 "
       id="polygon70" />
    <polygon
       style="fill:#ffffff;fill-opacity:0.25;stroke:#000000;stroke-width:1px"
       points="96.651,52.316 96.651,52.316 82.488,59.886 82.488,59.886 "
       id="polygon72" />
    <polygon
       style="fill:#ffffff;fill-opacity:0.25;stroke:#000000;stroke-width:1px"
       points="82.488,59.886 82.488,59.886 70.074,70.074 70.074,70.074 "
       id="polygon74" />
    <polygon
       style="fill:#ffffff;fill-opacity:0.25;stroke:#000000;stroke-width:1px"
       points="70.074,70.074 70.074,70.074 59.886,82.488 59.886,82.488 "
       id="polygon76" />
    <polygon
       style="fill:#ffffff;fill-opacity:0.25;stroke:#000000;stroke-width:1px"
       points="59.886,82.488 59.886,82.488 52.316,96.65 52.316,96.65 "
       id="polygon78" />
    <polygon
       style="fill:#ffffff;fill-opacity:0.25;stroke:#000000;stroke-width:1px"
       points="72.514,103.531 72.514,103.531 80.813,91.117 80.813,91.117 "
       id="polygon80" />
    <polygon
       style="fill:#ffffff;fill-opacity:0.25;stroke:#000000;stroke-width:1px"
       points="80.813,91.117 80.813,91.117 90.926,80.929 90.926,80.929 "
       id="polygon82" />
    <polygon
       style="fill:#ffffff;fill-opacity:0.25;stroke:#000000;stroke-width:1px"
       points="90.926,80.929 90.926,80.929 102.463,73.359 102.463,73.359 "
       id="polygon84" />
    <polygon
       style="fill:#ffffff;fill-opacity:0.25;stroke:#000000;stroke-width:1px"
       points="102.463,73.359 102.463,73.359 114.981,68.697 114.981,68.697 "
       id="polygon86" />
    <polygon
       style="fill:#ffffff;fill-opacity:0.25;stroke:#000000;stroke-width:1px"
       points="114.981,68.697 114.981,68.697 128,67.123 128,67.123 "
       id="polygon88" />
    <polygon
       style="fill:#ffffff;fill-opacity:0.25;stroke:#000000;stroke-width:1px"
       points="141.019,68.697 141.019,68.697 153.537,73.359 153.537,73.359 "
       id="polygon90" />
    <polygon
       style="fill:#ffffff;fill-opacity:0.25;stroke:#000000;stroke-width:1px"
       points="153.537,73.359 153.537,73.359 165.074,80.929 165.074,80.929 "
       id="polygon92" />
    <polygon
       style="fill:#ffffff;fill-opacity:0.25;stroke:#000000;stroke-width:1px"
       points="165.074,80.929 165.074,80.929 175.187,91.117 175.187,91.117 "
       id="polygon94" />
    <polygon
       style="fill:#ffffff;fill-opacity:0.25;stroke:#000000;stroke-width:1px"
       points="175.187,91.117 175.187,91.117 183.486,103.531 183.486,103.531 "
       id="polygon96" />
    <polygon
       style="fill:#ffffff;fill-opacity:0.25;stroke:#000000;stroke-width:1px"
       points="203.684,96.651 203.684,96.651 196.114,82.488 196.114,82.488 "
       id="polygon98" />
    <polygon
       style="fill:#ffffff;fill-opacity:0.25;stroke:#000000;stroke-width:1px"
       points="196.114,82.488 196.114,82.488 185.926,70.074 185.926,70.074 "
       id="polygon100" />
    <polygon
       style="fill:#ffffff;fill-opacity:0.25;stroke:#000000;stroke-width:1px"
       points="185.926,70.074 185.926,70.074 173.512,59.886 173.512,59.886 "
       id="polygon102" />
    <polygon
       style="fill:#ffffff;fill-opacity:0.25;stroke:#000000;stroke-width:1px"
       points="173.512,59.886 173.512,59.886 159.349,52.316 159.349,52.316 "
       id="polygon104" />
    <polygon
       style="fill:#ffffff;fill-opacity:0.25;stroke:#000000;stroke-width:1px"
       points="159.349,52.316 159.349,52.316 143.982,47.654 143.982,47.654 "
       id="polygon106" />
    <polygon
       style="fill:#ffffff;fill-opacity:0.25;stroke:#000000;stroke-width:1px"
       points="143.982,47.654 143.982,47.654 128,46.08 128,46.08 "
       id="polygon108" />
  </g>
  <g
     inkscape:groupmode="layer"
     id="layer2"
     inkscape:label="Layer#1">
    <path
       style="fill:none;stroke:#ffffff;stroke-width:16;stroke-linecap:butt;stroke-linejoin:miter;stroke-miterlimit:4;stroke-opacity:1;stroke-dasharray:none"
       d="m 127.86769,25.777421 -0.15187,20.501351"
       id="path3274"
       inkscape:connector-curvature="0" />
    <path
       inkscape:connector-curvature="0"
       id="path4044"
       d="m 37.931166,79.613319 18.019657,9.778569"
       style="fill:none;stroke:#ffffff;stroke-width:16;stroke-linecap:butt;stroke-linejoin:miter;stroke-miterlimit:4;stroke-opacity:1;stroke-dasharray:none"
       inkscape:transform-center-x="2.0344546"
       inkscape:transform-center-y="-0.72873537" />
    <path
       inkscape:transform-center-y="-1.6373539"
       inkscape:transform-center-x="1.4103666"
       style="fill:none;stroke:#ffffff;stroke-width:16;stroke-linecap:butt;stroke-linejoin:miter;stroke-miterlimit:4;stroke-opacity:1;stroke-dasharray:none"
       d="m 75.668233,40.408763 10.852523,17.394"
       id="path4049"
       inkscape:connector-curvature="0" />
    <path
       inkscape:transform-center-y="-0.72873537"
       inkscape:transform-center-x="-2.0344546"
       style="fill:none;stroke:#ffffff;stroke-width:16;stroke-linecap:butt;stroke-linejoin:miter;stroke-miterlimit:4;stroke-opacity:1;stroke-dasharray:none"
       d="m 217.95082,79.613319 -18.01965,9.778569"
       id="path4051"
       inkscape:connector-curvature="0" />
    <path
       inkscape:connector-curvature="0"
       id="path4053"
       d="m 180.52076,40.408763 -10.85253,17.394"
       style="fill:none;stroke:#ffffff;stroke-width:16;stroke-linecap:butt;stroke-linejoin:miter;stroke-miterlimit:4;stroke-opacity:1;stroke-dasharray:none"
       inkscape:transform-center-x="-1.4103666"
       inkscape:transform-center-y="-1.6373539" />
    <path
       inkscape:connector-curvature="0"
       id="path4055"
       d="m 127.86769,47.777421 -0.15187,17.279874"
       style="fill:none;stroke:#ffffff;stroke-width:16;stroke-linecap:butt;stroke-linejoin:miter;stroke-miterlimit:4;stroke-opacity:1;stroke-dasharray:none"
       sodipodi:nodetypes="cc" />
  </g>
</svg>
